<?xml version="1.0" encoding="utf-8" standalone="no"?>
<!DOCTYPE svg PUBLIC "-//W3C//DTD SVG 1.1//EN"
  "http://www.w3.org/Graphics/SVG/1.1/DTD/svg11.dtd">
<svg xmlns:xlink="http://www.w3.org/1999/xlink" width="864pt" height="360pt" viewBox="0 0 864 360" xmlns="http://www.w3.org/2000/svg" version="1.1">
 <metadata>
  <rdf:RDF xmlns:dc="http://purl.org/dc/elements/1.1/" xmlns:cc="http://creativecommons.org/ns#" xmlns:rdf="http://www.w3.org/1999/02/22-rdf-syntax-ns#">
   <cc:Work>
    <dc:type rdf:resource="http://purl.org/dc/dcmitype/StillImage"/>
    <dc:date>2023-10-20T08:47:36.746773</dc:date>
    <dc:format>image/svg+xml</dc:format>
    <dc:creator>
     <cc:Agent>
      <dc:title>Matplotlib v3.8.0, https://matplotlib.org/</dc:title>
     </cc:Agent>
    </dc:creator>
   </cc:Work>
  </rdf:RDF>
 </metadata>
 <defs>
  <style type="text/css">*{stroke-linejoin: round; stroke-linecap: butt}</style>
 </defs>
 <g id="figure_1">
  <g id="patch_1">
   <path d="M 0 360 
L 864 360 
L 864 0 
L 0 0 
L 0 360 
z
" style="fill: none; opacity: 0"/>
  </g>
  <g id="axes_1">
   <g id="patch_2">
    <path d="M 108 320.4 
L 777.6 320.4 
L 777.6 43.2 
L 108 43.2 
L 108 320.4 
z
" style="fill: none; opacity: 0"/>
   </g>
   <g id="matplotlib.axis_1">
    <g id="xtick_1">
     <g id="line2d_1">
      <path d="M 121.32056 320.4 
L 121.32056 43.2 
" clip-path="url(#pbd6e805f7d)" style="fill: none; stroke-dasharray: 5.12,1.28,0.8,1.28; stroke-dashoffset: 0; stroke: #b0b0b0; stroke-width: 0.8"/>
     </g>
     <g id="line2d_2">
      <defs>
       <path id="m05f22b0a8b" d="M 0 0 
L 0 3.5 
" style="stroke: #a9a9a9; stroke-width: 0.8"/>
      </defs>
      <g>
       <use xlink:href="#m05f22b0a8b" x="121.32056" y="320.4" style="fill: #a9a9a9; stroke: #a9a9a9; stroke-width: 0.8"/>
      </g>
     </g>
     <g id="text_1">
      <!-- 2021-07 -->
      <g style="fill: #a9a9a9" transform="translate(100.429154 334.998438) scale(0.1 -0.1)">
       <defs>
        <path id="DejaVuSans-32" d="M 1228 531 
L 3431 531 
L 3431 0 
L 469 0 
L 469 531 
Q 828 903 1448 1529 
Q 2069 2156 2228 2338 
Q 2531 2678 2651 2914 
Q 2772 3150 2772 3378 
Q 2772 3750 2511 3984 
Q 2250 4219 1831 4219 
Q 1534 4219 1204 4116 
Q 875 4013 500 3803 
L 500 4441 
Q 881 4594 1212 4672 
Q 1544 4750 1819 4750 
Q 2544 4750 2975 4387 
Q 3406 4025 3406 3419 
Q 3406 3131 3298 2873 
Q 3191 2616 2906 2266 
Q 2828 2175 2409 1742 
Q 1991 1309 1228 531 
z
" transform="scale(0.015625)"/>
        <path id="DejaVuSans-30" d="M 2034 4250 
Q 1547 4250 1301 3770 
Q 1056 3291 1056 2328 
Q 1056 1369 1301 889 
Q 1547 409 2034 409 
Q 2525 409 2770 889 
Q 3016 1369 3016 2328 
Q 3016 3291 2770 3770 
Q 2525 4250 2034 4250 
z
M 2034 4750 
Q 2819 4750 3233 4129 
Q 3647 3509 3647 2328 
Q 3647 1150 3233 529 
Q 2819 -91 2034 -91 
Q 1250 -91 836 529 
Q 422 1150 422 2328 
Q 422 3509 836 4129 
Q 1250 4750 2034 4750 
z
" transform="scale(0.015625)"/>
        <path id="DejaVuSans-31" d="M 794 531 
L 1825 531 
L 1825 4091 
L 703 3866 
L 703 4441 
L 1819 4666 
L 2450 4666 
L 2450 531 
L 3481 531 
L 3481 0 
L 794 0 
L 794 531 
z
" transform="scale(0.015625)"/>
        <path id="DejaVuSans-2d" d="M 313 2009 
L 1997 2009 
L 1997 1497 
L 313 1497 
L 313 2009 
z
" transform="scale(0.015625)"/>
        <path id="DejaVuSans-37" d="M 525 4666 
L 3525 4666 
L 3525 4397 
L 1831 0 
L 1172 0 
L 2766 4134 
L 525 4134 
L 525 4666 
z
" transform="scale(0.015625)"/>
       </defs>
       <use xlink:href="#DejaVuSans-32"/>
       <use xlink:href="#DejaVuSans-30" x="63.623047"/>
       <use xlink:href="#DejaVuSans-32" x="127.246094"/>
       <use xlink:href="#DejaVuSans-31" x="190.869141"/>
       <use xlink:href="#DejaVuSans-2d" x="254.492188"/>
       <use xlink:href="#DejaVuSans-30" x="290.576172"/>
       <use xlink:href="#DejaVuSans-37" x="354.199219"/>
      </g>
     </g>
    </g>
    <g id="xtick_2">
     <g id="line2d_3">
      <path d="M 189.783774 320.4 
L 189.783774 43.2 
" clip-path="url(#pbd6e805f7d)" style="fill: none; stroke-dasharray: 5.12,1.28,0.8,1.28; stroke-dashoffset: 0; stroke: #b0b0b0; stroke-width: 0.8"/>
     </g>
     <g id="line2d_4">
      <g>
       <use xlink:href="#m05f22b0a8b" x="189.783774" y="320.4" style="fill: #a9a9a9; stroke: #a9a9a9; stroke-width: 0.8"/>
      </g>
     </g>
     <g id="text_2">
      <!-- 2021-10 -->
      <g style="fill: #a9a9a9" transform="translate(168.892368 334.998438) scale(0.1 -0.1)">
       <use xlink:href="#DejaVuSans-32"/>
       <use xlink:href="#DejaVuSans-30" x="63.623047"/>
       <use xlink:href="#DejaVuSans-32" x="127.246094"/>
       <use xlink:href="#DejaVuSans-31" x="190.869141"/>
       <use xlink:href="#DejaVuSans-2d" x="254.492188"/>
       <use xlink:href="#DejaVuSans-31" x="290.576172"/>
       <use xlink:href="#DejaVuSans-30" x="354.199219"/>
      </g>
     </g>
    </g>
    <g id="xtick_3">
     <g id="line2d_5">
      <path d="M 258.246988 320.4 
L 258.246988 43.2 
" clip-path="url(#pbd6e805f7d)" style="fill: none; stroke-dasharray: 5.12,1.28,0.8,1.28; stroke-dashoffset: 0; stroke: #b0b0b0; stroke-width: 0.8"/>
     </g>
     <g id="line2d_6">
      <g>
       <use xlink:href="#m05f22b0a8b" x="258.246988" y="320.4" style="fill: #a9a9a9; stroke: #a9a9a9; stroke-width: 0.8"/>
      </g>
     </g>
     <g id="text_3">
      <!-- 2022-01 -->
      <g style="fill: #a9a9a9" transform="translate(237.355582 334.998438) scale(0.1 -0.1)">
       <use xlink:href="#DejaVuSans-32"/>
       <use xlink:href="#DejaVuSans-30" x="63.623047"/>
       <use xlink:href="#DejaVuSans-32" x="127.246094"/>
       <use xlink:href="#DejaVuSans-32" x="190.869141"/>
       <use xlink:href="#DejaVuSans-2d" x="254.492188"/>
       <use xlink:href="#DejaVuSans-30" x="290.576172"/>
       <use xlink:href="#DejaVuSans-31" x="354.199219"/>
      </g>
     </g>
    </g>
    <g id="xtick_4">
     <g id="line2d_7">
      <path d="M 325.221872 320.4 
L 325.221872 43.2 
" clip-path="url(#pbd6e805f7d)" style="fill: none; stroke-dasharray: 5.12,1.28,0.8,1.28; stroke-dashoffset: 0; stroke: #b0b0b0; stroke-width: 0.8"/>
     </g>
     <g id="line2d_8">
      <g>
       <use xlink:href="#m05f22b0a8b" x="325.221872" y="320.4" style="fill: #a9a9a9; stroke: #a9a9a9; stroke-width: 0.8"/>
      </g>
     </g>
     <g id="text_4">
      <!-- 2022-04 -->
      <g style="fill: #a9a9a9" transform="translate(304.330465 334.998438) scale(0.1 -0.1)">
       <defs>
        <path id="DejaVuSans-34" d="M 2419 4116 
L 825 1625 
L 2419 1625 
L 2419 4116 
z
M 2253 4666 
L 3047 4666 
L 3047 1625 
L 3713 1625 
L 3713 1100 
L 3047 1100 
L 3047 0 
L 2419 0 
L 2419 1100 
L 313 1100 
L 313 1709 
L 2253 4666 
z
" transform="scale(0.015625)"/>
       </defs>
       <use xlink:href="#DejaVuSans-32"/>
       <use xlink:href="#DejaVuSans-30" x="63.623047"/>
       <use xlink:href="#DejaVuSans-32" x="127.246094"/>
       <use xlink:href="#DejaVuSans-32" x="190.869141"/>
       <use xlink:href="#DejaVuSans-2d" x="254.492188"/>
       <use xlink:href="#DejaVuSans-30" x="290.576172"/>
       <use xlink:href="#DejaVuSans-34" x="354.199219"/>
      </g>
     </g>
    </g>
    <g id="xtick_5">
     <g id="line2d_9">
      <path d="M 392.94092 320.4 
L 392.94092 43.2 
" clip-path="url(#pbd6e805f7d)" style="fill: none; stroke-dasharray: 5.12,1.28,0.8,1.28; stroke-dashoffset: 0; stroke: #b0b0b0; stroke-width: 0.8"/>
     </g>
     <g id="line2d_10">
      <g>
       <use xlink:href="#m05f22b0a8b" x="392.94092" y="320.4" style="fill: #a9a9a9; stroke: #a9a9a9; stroke-width: 0.8"/>
      </g>
     </g>
     <g id="text_5">
      <!-- 2022-07 -->
      <g style="fill: #a9a9a9" transform="translate(372.049514 334.998438) scale(0.1 -0.1)">
       <use xlink:href="#DejaVuSans-32"/>
       <use xlink:href="#DejaVuSans-30" x="63.623047"/>
       <use xlink:href="#DejaVuSans-32" x="127.246094"/>
       <use xlink:href="#DejaVuSans-32" x="190.869141"/>
       <use xlink:href="#DejaVuSans-2d" x="254.492188"/>
       <use xlink:href="#DejaVuSans-30" x="290.576172"/>
       <use xlink:href="#DejaVuSans-37" x="354.199219"/>
      </g>
     </g>
    </g>
    <g id="xtick_6">
     <g id="line2d_11">
      <path d="M 461.404134 320.4 
L 461.404134 43.2 
" clip-path="url(#pbd6e805f7d)" style="fill: none; stroke-dasharray: 5.12,1.28,0.8,1.28; stroke-dashoffset: 0; stroke: #b0b0b0; stroke-width: 0.8"/>
     </g>
     <g id="line2d_12">
      <g>
       <use xlink:href="#m05f22b0a8b" x="461.404134" y="320.4" style="fill: #a9a9a9; stroke: #a9a9a9; stroke-width: 0.8"/>
      </g>
     </g>
     <g id="text_6">
      <!-- 2022-10 -->
      <g style="fill: #a9a9a9" transform="translate(440.512728 334.998438) scale(0.1 -0.1)">
       <use xlink:href="#DejaVuSans-32"/>
       <use xlink:href="#DejaVuSans-30" x="63.623047"/>
       <use xlink:href="#DejaVuSans-32" x="127.246094"/>
       <use xlink:href="#DejaVuSans-32" x="190.869141"/>
       <use xlink:href="#DejaVuSans-2d" x="254.492188"/>
       <use xlink:href="#DejaVuSans-31" x="290.576172"/>
       <use xlink:href="#DejaVuSans-30" x="354.199219"/>
      </g>
     </g>
    </g>
    <g id="xtick_7">
     <g id="line2d_13">
      <path d="M 529.867348 320.4 
L 529.867348 43.2 
" clip-path="url(#pbd6e805f7d)" style="fill: none; stroke-dasharray: 5.12,1.28,0.8,1.28; stroke-dashoffset: 0; stroke: #b0b0b0; stroke-width: 0.8"/>
     </g>
     <g id="line2d_14">
      <g>
       <use xlink:href="#m05f22b0a8b" x="529.867348" y="320.4" style="fill: #a9a9a9; stroke: #a9a9a9; stroke-width: 0.8"/>
      </g>
     </g>
     <g id="text_7">
      <!-- 2023-01 -->
      <g style="fill: #a9a9a9" transform="translate(508.975942 334.998438) scale(0.1 -0.1)">
       <defs>
        <path id="DejaVuSans-33" d="M 2597 2516 
Q 3050 2419 3304 2112 
Q 3559 1806 3559 1356 
Q 3559 666 3084 287 
Q 2609 -91 1734 -91 
Q 1441 -91 1130 -33 
Q 819 25 488 141 
L 488 750 
Q 750 597 1062 519 
Q 1375 441 1716 441 
Q 2309 441 2620 675 
Q 2931 909 2931 1356 
Q 2931 1769 2642 2001 
Q 2353 2234 1838 2234 
L 1294 2234 
L 1294 2753 
L 1863 2753 
Q 2328 2753 2575 2939 
Q 2822 3125 2822 3475 
Q 2822 3834 2567 4026 
Q 2313 4219 1838 4219 
Q 1578 4219 1281 4162 
Q 984 4106 628 3988 
L 628 4550 
Q 988 4650 1302 4700 
Q 1616 4750 1894 4750 
Q 2613 4750 3031 4423 
Q 3450 4097 3450 3541 
Q 3450 3153 3228 2886 
Q 3006 2619 2597 2516 
z
" transform="scale(0.015625)"/>
       </defs>
       <use xlink:href="#DejaVuSans-32"/>
       <use xlink:href="#DejaVuSans-30" x="63.623047"/>
       <use xlink:href="#DejaVuSans-32" x="127.246094"/>
       <use xlink:href="#DejaVuSans-33" x="190.869141"/>
       <use xlink:href="#DejaVuSans-2d" x="254.492188"/>
       <use xlink:href="#DejaVuSans-30" x="290.576172"/>
       <use xlink:href="#DejaVuSans-31" x="354.199219"/>
      </g>
     </g>
    </g>
    <g id="xtick_8">
     <g id="line2d_15">
      <path d="M 596.842232 320.4 
L 596.842232 43.2 
" clip-path="url(#pbd6e805f7d)" style="fill: none; stroke-dasharray: 5.12,1.28,0.8,1.28; stroke-dashoffset: 0; stroke: #b0b0b0; stroke-width: 0.8"/>
     </g>
     <g id="line2d_16">
      <g>
       <use xlink:href="#m05f22b0a8b" x="596.842232" y="320.4" style="fill: #a9a9a9; stroke: #a9a9a9; stroke-width: 0.8"/>
      </g>
     </g>
     <g id="text_8">
      <!-- 2023-04 -->
      <g style="fill: #a9a9a9" transform="translate(575.950825 334.998438) scale(0.1 -0.1)">
       <use xlink:href="#DejaVuSans-32"/>
       <use xlink:href="#DejaVuSans-30" x="63.623047"/>
       <use xlink:href="#DejaVuSans-32" x="127.246094"/>
       <use xlink:href="#DejaVuSans-33" x="190.869141"/>
       <use xlink:href="#DejaVuSans-2d" x="254.492188"/>
       <use xlink:href="#DejaVuSans-30" x="290.576172"/>
       <use xlink:href="#DejaVuSans-34" x="354.199219"/>
      </g>
     </g>
    </g>
    <g id="xtick_9">
     <g id="line2d_17">
      <path d="M 664.56128 320.4 
L 664.56128 43.2 
" clip-path="url(#pbd6e805f7d)" style="fill: none; stroke-dasharray: 5.12,1.28,0.8,1.28; stroke-dashoffset: 0; stroke: #b0b0b0; stroke-width: 0.8"/>
     </g>
     <g id="line2d_18">
      <g>
       <use xlink:href="#m05f22b0a8b" x="664.56128" y="320.4" style="fill: #a9a9a9; stroke: #a9a9a9; stroke-width: 0.8"/>
      </g>
     </g>
     <g id="text_9">
      <!-- 2023-07 -->
      <g style="fill: #a9a9a9" transform="translate(643.669874 334.998438) scale(0.1 -0.1)">
       <use xlink:href="#DejaVuSans-32"/>
       <use xlink:href="#DejaVuSans-30" x="63.623047"/>
       <use xlink:href="#DejaVuSans-32" x="127.246094"/>
       <use xlink:href="#DejaVuSans-33" x="190.869141"/>
       <use xlink:href="#DejaVuSans-2d" x="254.492188"/>
       <use xlink:href="#DejaVuSans-30" x="290.576172"/>
       <use xlink:href="#DejaVuSans-37" x="354.199219"/>
      </g>
     </g>
    </g>
    <g id="xtick_10">
     <g id="line2d_19">
      <path d="M 733.024494 320.4 
L 733.024494 43.2 
" clip-path="url(#pbd6e805f7d)" style="fill: none; stroke-dasharray: 5.12,1.28,0.8,1.28; stroke-dashoffset: 0; stroke: #b0b0b0; stroke-width: 0.8"/>
     </g>
     <g id="line2d_20">
      <g>
       <use xlink:href="#m05f22b0a8b" x="733.024494" y="320.4" style="fill: #a9a9a9; stroke: #a9a9a9; stroke-width: 0.8"/>
      </g>
     </g>
     <g id="text_10">
      <!-- 2023-10 -->
      <g style="fill: #a9a9a9" transform="translate(712.133088 334.998438) scale(0.1 -0.1)">
       <use xlink:href="#DejaVuSans-32"/>
       <use xlink:href="#DejaVuSans-30" x="63.623047"/>
       <use xlink:href="#DejaVuSans-32" x="127.246094"/>
       <use xlink:href="#DejaVuSans-33" x="190.869141"/>
       <use xlink:href="#DejaVuSans-2d" x="254.492188"/>
       <use xlink:href="#DejaVuSans-31" x="290.576172"/>
       <use xlink:href="#DejaVuSans-30" x="354.199219"/>
      </g>
     </g>
    </g>
   </g>
   <g id="matplotlib.axis_2">
    <g id="ytick_1">
     <g id="line2d_21">
      <path d="M 108 307.850481 
L 777.6 307.850481 
" clip-path="url(#pbd6e805f7d)" style="fill: none; stroke-dasharray: 5.12,1.28,0.8,1.28; stroke-dashoffset: 0; stroke: #b0b0b0; stroke-width: 0.8"/>
     </g>
     <g id="line2d_22">
      <defs>
       <path id="maa108ce2b1" d="M 0 0 
L -3.5 0 
" style="stroke: #a9a9a9; stroke-width: 0.8"/>
      </defs>
      <g>
       <use xlink:href="#maa108ce2b1" x="108" y="307.850481" style="fill: #a9a9a9; stroke: #a9a9a9; stroke-width: 0.8"/>
      </g>
     </g>
     <g id="text_11">
      <!-- 0 -->
      <g style="fill: #a9a9a9" transform="translate(94.6375 311.6497) scale(0.1 -0.1)">
       <use xlink:href="#DejaVuSans-30"/>
      </g>
     </g>
    </g>
    <g id="ytick_2">
     <g id="line2d_23">
      <path d="M 108 277.562019 
L 777.6 277.562019 
" clip-path="url(#pbd6e805f7d)" style="fill: none; stroke-dasharray: 5.12,1.28,0.8,1.28; stroke-dashoffset: 0; stroke: #b0b0b0; stroke-width: 0.8"/>
     </g>
     <g id="line2d_24">
      <g>
       <use xlink:href="#maa108ce2b1" x="108" y="277.562019" style="fill: #a9a9a9; stroke: #a9a9a9; stroke-width: 0.8"/>
      </g>
     </g>
     <g id="text_12">
      <!-- 600 -->
      <g style="fill: #a9a9a9" transform="translate(81.9125 281.361238) scale(0.1 -0.1)">
       <defs>
        <path id="DejaVuSans-36" d="M 2113 2584 
Q 1688 2584 1439 2293 
Q 1191 2003 1191 1497 
Q 1191 994 1439 701 
Q 1688 409 2113 409 
Q 2538 409 2786 701 
Q 3034 994 3034 1497 
Q 3034 2003 2786 2293 
Q 2538 2584 2113 2584 
z
M 3366 4563 
L 3366 3988 
Q 3128 4100 2886 4159 
Q 2644 4219 2406 4219 
Q 1781 4219 1451 3797 
Q 1122 3375 1075 2522 
Q 1259 2794 1537 2939 
Q 1816 3084 2150 3084 
Q 2853 3084 3261 2657 
Q 3669 2231 3669 1497 
Q 3669 778 3244 343 
Q 2819 -91 2113 -91 
Q 1303 -91 875 529 
Q 447 1150 447 2328 
Q 447 3434 972 4092 
Q 1497 4750 2381 4750 
Q 2619 4750 2861 4703 
Q 3103 4656 3366 4563 
z
" transform="scale(0.015625)"/>
       </defs>
       <use xlink:href="#DejaVuSans-36"/>
       <use xlink:href="#DejaVuSans-30" x="63.623047"/>
       <use xlink:href="#DejaVuSans-30" x="127.246094"/>
      </g>
     </g>
    </g>
    <g id="ytick_3">
     <g id="line2d_25">
      <path d="M 108 247.273558 
L 777.6 247.273558 
" clip-path="url(#pbd6e805f7d)" style="fill: none; stroke-dasharray: 5.12,1.28,0.8,1.28; stroke-dashoffset: 0; stroke: #b0b0b0; stroke-width: 0.8"/>
     </g>
     <g id="line2d_26">
      <g>
       <use xlink:href="#maa108ce2b1" x="108" y="247.273558" style="fill: #a9a9a9; stroke: #a9a9a9; stroke-width: 0.8"/>
      </g>
     </g>
     <g id="text_13">
      <!-- 1200 -->
      <g style="fill: #a9a9a9" transform="translate(75.55 251.072776) scale(0.1 -0.1)">
       <use xlink:href="#DejaVuSans-31"/>
       <use xlink:href="#DejaVuSans-32" x="63.623047"/>
       <use xlink:href="#DejaVuSans-30" x="127.246094"/>
       <use xlink:href="#DejaVuSans-30" x="190.869141"/>
      </g>
     </g>
    </g>
    <g id="ytick_4">
     <g id="line2d_27">
      <path d="M 108 216.985096 
L 777.6 216.985096 
" clip-path="url(#pbd6e805f7d)" style="fill: none; stroke-dasharray: 5.12,1.28,0.8,1.28; stroke-dashoffset: 0; stroke: #b0b0b0; stroke-width: 0.8"/>
     </g>
     <g id="line2d_28">
      <g>
       <use xlink:href="#maa108ce2b1" x="108" y="216.985096" style="fill: #a9a9a9; stroke: #a9a9a9; stroke-width: 0.8"/>
      </g>
     </g>
     <g id="text_14">
      <!-- 1800 -->
      <g style="fill: #a9a9a9" transform="translate(75.55 220.784315) scale(0.1 -0.1)">
       <defs>
        <path id="DejaVuSans-38" d="M 2034 2216 
Q 1584 2216 1326 1975 
Q 1069 1734 1069 1313 
Q 1069 891 1326 650 
Q 1584 409 2034 409 
Q 2484 409 2743 651 
Q 3003 894 3003 1313 
Q 3003 1734 2745 1975 
Q 2488 2216 2034 2216 
z
M 1403 2484 
Q 997 2584 770 2862 
Q 544 3141 544 3541 
Q 544 4100 942 4425 
Q 1341 4750 2034 4750 
Q 2731 4750 3128 4425 
Q 3525 4100 3525 3541 
Q 3525 3141 3298 2862 
Q 3072 2584 2669 2484 
Q 3125 2378 3379 2068 
Q 3634 1759 3634 1313 
Q 3634 634 3220 271 
Q 2806 -91 2034 -91 
Q 1263 -91 848 271 
Q 434 634 434 1313 
Q 434 1759 690 2068 
Q 947 2378 1403 2484 
z
M 1172 3481 
Q 1172 3119 1398 2916 
Q 1625 2713 2034 2713 
Q 2441 2713 2670 2916 
Q 2900 3119 2900 3481 
Q 2900 3844 2670 4047 
Q 2441 4250 2034 4250 
Q 1625 4250 1398 4047 
Q 1172 3844 1172 3481 
z
" transform="scale(0.015625)"/>
       </defs>
       <use xlink:href="#DejaVuSans-31"/>
       <use xlink:href="#DejaVuSans-38" x="63.623047"/>
       <use xlink:href="#DejaVuSans-30" x="127.246094"/>
       <use xlink:href="#DejaVuSans-30" x="190.869141"/>
      </g>
     </g>
    </g>
    <g id="ytick_5">
     <g id="line2d_29">
      <path d="M 108 186.696635 
L 777.6 186.696635 
" clip-path="url(#pbd6e805f7d)" style="fill: none; stroke-dasharray: 5.12,1.28,0.8,1.28; stroke-dashoffset: 0; stroke: #b0b0b0; stroke-width: 0.8"/>
     </g>
     <g id="line2d_30">
      <g>
       <use xlink:href="#maa108ce2b1" x="108" y="186.696635" style="fill: #a9a9a9; stroke: #a9a9a9; stroke-width: 0.8"/>
      </g>
     </g>
     <g id="text_15">
      <!-- 2400 -->
      <g style="fill: #a9a9a9" transform="translate(75.55 190.495853) scale(0.1 -0.1)">
       <use xlink:href="#DejaVuSans-32"/>
       <use xlink:href="#DejaVuSans-34" x="63.623047"/>
       <use xlink:href="#DejaVuSans-30" x="127.246094"/>
       <use xlink:href="#DejaVuSans-30" x="190.869141"/>
      </g>
     </g>
    </g>
    <g id="ytick_6">
     <g id="line2d_31">
      <path d="M 108 156.408173 
L 777.6 156.408173 
" clip-path="url(#pbd6e805f7d)" style="fill: none; stroke-dasharray: 5.12,1.28,0.8,1.28; stroke-dashoffset: 0; stroke: #b0b0b0; stroke-width: 0.8"/>
     </g>
     <g id="line2d_32">
      <g>
       <use xlink:href="#maa108ce2b1" x="108" y="156.408173" style="fill: #a9a9a9; stroke: #a9a9a9; stroke-width: 0.8"/>
      </g>
     </g>
     <g id="text_16">
      <!-- 3000 -->
      <g style="fill: #a9a9a9" transform="translate(75.55 160.207392) scale(0.1 -0.1)">
       <use xlink:href="#DejaVuSans-33"/>
       <use xlink:href="#DejaVuSans-30" x="63.623047"/>
       <use xlink:href="#DejaVuSans-30" x="127.246094"/>
       <use xlink:href="#DejaVuSans-30" x="190.869141"/>
      </g>
     </g>
    </g>
    <g id="ytick_7">
     <g id="line2d_33">
      <path d="M 108 126.119712 
L 777.6 126.119712 
" clip-path="url(#pbd6e805f7d)" style="fill: none; stroke-dasharray: 5.12,1.28,0.8,1.28; stroke-dashoffset: 0; stroke: #b0b0b0; stroke-width: 0.8"/>
     </g>
     <g id="line2d_34">
      <g>
       <use xlink:href="#maa108ce2b1" x="108" y="126.119712" style="fill: #a9a9a9; stroke: #a9a9a9; stroke-width: 0.8"/>
      </g>
     </g>
     <g id="text_17">
      <!-- 3600 -->
      <g style="fill: #a9a9a9" transform="translate(75.55 129.91893) scale(0.1 -0.1)">
       <use xlink:href="#DejaVuSans-33"/>
       <use xlink:href="#DejaVuSans-36" x="63.623047"/>
       <use xlink:href="#DejaVuSans-30" x="127.246094"/>
       <use xlink:href="#DejaVuSans-30" x="190.869141"/>
      </g>
     </g>
    </g>
    <g id="ytick_8">
     <g id="line2d_35">
      <path d="M 108 95.83125 
L 777.6 95.83125 
" clip-path="url(#pbd6e805f7d)" style="fill: none; stroke-dasharray: 5.12,1.28,0.8,1.28; stroke-dashoffset: 0; stroke: #b0b0b0; stroke-width: 0.8"/>
     </g>
     <g id="line2d_36">
      <g>
       <use xlink:href="#maa108ce2b1" x="108" y="95.83125" style="fill: #a9a9a9; stroke: #a9a9a9; stroke-width: 0.8"/>
      </g>
     </g>
     <g id="text_18">
      <!-- 4200 -->
      <g style="fill: #a9a9a9" transform="translate(75.55 99.630469) scale(0.1 -0.1)">
       <use xlink:href="#DejaVuSans-34"/>
       <use xlink:href="#DejaVuSans-32" x="63.623047"/>
       <use xlink:href="#DejaVuSans-30" x="127.246094"/>
       <use xlink:href="#DejaVuSans-30" x="190.869141"/>
      </g>
     </g>
    </g>
    <g id="ytick_9">
     <g id="line2d_37">
      <path d="M 108 65.542788 
L 777.6 65.542788 
" clip-path="url(#pbd6e805f7d)" style="fill: none; stroke-dasharray: 5.12,1.28,0.8,1.28; stroke-dashoffset: 0; stroke: #b0b0b0; stroke-width: 0.8"/>
     </g>
     <g id="line2d_38">
      <g>
       <use xlink:href="#maa108ce2b1" x="108" y="65.542788" style="fill: #a9a9a9; stroke: #a9a9a9; stroke-width: 0.8"/>
      </g>
     </g>
     <g id="text_19">
      <!-- 4800 -->
      <g style="fill: #a9a9a9" transform="translate(75.55 69.342007) scale(0.1 -0.1)">
       <use xlink:href="#DejaVuSans-34"/>
       <use xlink:href="#DejaVuSans-38" x="63.623047"/>
       <use xlink:href="#DejaVuSans-30" x="127.246094"/>
       <use xlink:href="#DejaVuSans-30" x="190.869141"/>
      </g>
     </g>
    </g>
   </g>
   <g id="line2d_39">
    <path d="M 138.436364 307.699038 
L 142.901356 307.345673 
L 143.645521 307.042788 
L 145.878017 306.790385 
L 151.087175 305.83125 
L 154.808002 305.477885 
L 155.552167 305.124519 
L 156.296333 304.922596 
L 157.040498 304.013942 
L 157.784663 303.509135 
L 158.528829 301.89375 
L 159.272994 301.792788 
L 160.017159 301.2375 
L 161.50549 300.530769 
L 162.993821 299.420192 
L 163.737986 298.713462 
L 165.226317 298.006731 
L 165.970482 297.703846 
L 166.714648 297.148558 
L 169.691309 295.886538 
L 170.435475 294.725481 
L 171.17964 294.119712 
L 172.667971 293.312019 
L 180.109624 292.251923 
L 180.85379 291.898558 
L 186.062947 291.494712 
L 187.551278 291.090865 
L 189.039609 290.787981 
L 194.992932 290.030769 
L 195.737097 289.626923 
L 196.481263 289.525962 
L 197.225428 289.223077 
L 198.713759 288.970673 
L 199.457924 288.920192 
L 200.202089 288.667788 
L 203.178751 288.213462 
L 204.667082 287.809615 
L 206.899578 287.607692 
L 208.387908 287.45625 
L 209.132074 287.254327 
L 209.876239 287.203846 
L 212.108735 286.547596 
L 216.573727 285.891346 
L 217.317893 285.638942 
L 218.062058 284.629327 
L 220.294554 283.821635 
L 222.52705 283.215865 
L 223.271216 282.8625 
L 224.015381 282.812019 
L 227.736208 281.802404 
L 229.224539 281.701442 
L 229.968704 281.600481 
L 232.2012 280.944231 
L 235.177862 280.2375 
L 235.922027 279.934615 
L 236.666192 279.833654 
L 237.410358 279.480288 
L 244.852012 278.369712 
L 248.572838 277.309615 
L 249.317004 276.855288 
L 252.293665 276.047596 
L 253.781996 275.189423 
L 254.526161 274.684615 
L 255.270327 274.583654 
L 256.014492 274.33125 
L 258.246988 273.927404 
L 258.991154 273.574038 
L 260.479484 273.321635 
L 261.22365 272.917788 
L 262.71198 272.463462 
L 263.456146 272.3625 
L 264.944477 271.958654 
L 266.432807 271.605288 
L 267.176973 271.504327 
L 268.665303 270.898558 
L 269.409469 270.747115 
L 270.153634 270.444231 
L 270.8978 270.343269 
L 271.641965 269.989904 
L 272.38613 269.787981 
L 273.874461 269.687019 
L 275.362792 269.182212 
L 276.851122 269.08125 
L 277.595288 268.727885 
L 280.571949 268.223077 
L 283.548611 267.970673 
L 284.292776 267.819231 
L 285.781107 267.1125 
L 293.966926 263.730288 
L 294.711091 263.326442 
L 295.455257 262.51875 
L 296.199422 261.307212 
L 296.943587 260.348077 
L 297.687753 260.146154 
L 298.431918 260.146154 
L 299.920249 259.035577 
L 300.664414 258.833654 
L 301.40858 258.429808 
L 302.152745 258.278365 
L 302.89691 257.622115 
L 303.641076 257.420192 
L 305.873572 256.360096 
L 306.617737 255.451442 
L 307.361903 254.340865 
L 308.106068 253.886538 
L 308.850233 252.675 
L 309.594399 251.917788 
L 310.338564 251.564423 
L 311.082729 251.3625 
L 312.57106 250.453846 
L 313.315226 250.100481 
L 316.291887 247.879327 
L 317.036052 246.819231 
L 317.780218 245.102885 
L 318.524383 243.992308 
L 319.268549 243.437019 
L 320.012714 243.134135 
L 322.989375 240.610096 
L 323.733541 240.105288 
L 325.221872 238.843269 
L 325.966037 237.783173 
L 327.454368 236.521154 
L 330.431029 234.602885 
L 331.175194 233.946635 
L 331.91936 233.795192 
L 334.151856 232.634135 
L 335.640187 231.775962 
L 336.384352 231.473077 
L 337.872683 230.110096 
L 338.616848 229.251923 
L 340.105179 228.242308 
L 340.849344 228.040385 
L 341.59351 227.687019 
L 342.337675 227.131731 
L 343.826006 226.324038 
L 344.570171 226.223077 
L 346.058502 225.415385 
L 346.802667 225.011538 
L 347.546833 224.254327 
L 348.290998 223.8 
L 349.035163 223.547596 
L 349.779329 223.042788 
L 352.75599 221.528365 
L 353.500156 220.872115 
L 356.476817 219.8625 
L 357.220982 219.357692 
L 357.965148 219.20625 
L 359.453479 218.701442 
L 361.685975 217.843269 
L 363.918471 217.035577 
L 365.406802 216.783173 
L 366.895132 215.521154 
L 368.383463 214.814423 
L 370.615959 213.552404 
L 372.10429 213.148558 
L 372.848455 212.694231 
L 373.592621 212.492308 
L 375.825117 211.078846 
L 379.545944 210.220673 
L 381.77844 208.958654 
L 382.522605 208.857692 
L 383.26677 208.605288 
L 384.755101 208.302404 
L 386.987597 206.687019 
L 389.220093 206.182212 
L 389.964259 205.929808 
L 390.708424 205.374519 
L 395.173416 203.961058 
L 395.917582 203.910577 
L 401.126739 202.093269 
L 401.870905 201.739904 
L 404.103401 201.235096 
L 405.591731 200.881731 
L 406.335897 200.528365 
L 407.080062 200.376923 
L 409.312558 199.367308 
L 411.545054 198.307212 
L 412.28922 197.802404 
L 413.033385 197.600481 
L 415.265881 196.439423 
L 416.754212 196.086058 
L 418.242543 195.328846 
L 419.730874 194.925 
L 420.475039 194.824038 
L 421.219204 194.319231 
L 421.96337 193.965865 
L 422.707535 193.814423 
L 424.195866 193.208654 
L 424.940031 193.057212 
L 425.684196 192.653365 
L 428.660858 192.199038 
L 430.149189 191.492308 
L 430.893354 190.886538 
L 431.637519 189.624519 
L 433.12585 189.321635 
L 433.870016 189.170192 
L 436.846677 187.655769 
L 437.590842 187.504327 
L 443.544165 184.626923 
L 445.776661 184.172596 
L 447.264992 183.465865 
L 448.009158 183.162981 
L 448.753323 183.062019 
L 451.729984 181.749519 
L 453.218315 180.739904 
L 453.962481 180.386538 
L 454.706646 180.285577 
L 455.450811 180.033173 
L 456.194977 179.982692 
L 459.171638 179.023558 
L 459.915804 178.973077 
L 460.659969 178.417788 
L 462.1483 177.912981 
L 464.380796 177.20625 
L 465.124961 176.751923 
L 465.869126 176.55 
L 466.613292 176.045192 
L 467.357457 175.742308 
L 468.101623 175.287981 
L 469.589953 174.732692 
L 471.822449 174.025962 
L 472.566615 173.672596 
L 473.31078 173.117308 
L 474.054946 172.360096 
L 474.799111 171.905769 
L 475.543276 171.754327 
L 477.031607 170.64375 
L 477.775772 170.492308 
L 478.519938 169.381731 
L 479.264103 169.078846 
L 480.008269 168.523558 
L 480.752434 168.422596 
L 481.496599 167.917788 
L 482.240765 167.564423 
L 482.98493 167.412981 
L 483.729095 167.110096 
L 484.473261 166.504327 
L 485.217426 166.251923 
L 487.449922 164.787981 
L 490.426584 163.324038 
L 491.170749 163.223077 
L 492.65908 162.566827 
L 493.403245 162.1125 
L 494.147411 160.900962 
L 494.891576 160.194231 
L 495.635741 159.790385 
L 496.379907 159.638942 
L 497.868237 158.730288 
L 498.612403 158.578846 
L 500.100733 157.872115 
L 502.33323 156.963462 
L 503.82156 155.953846 
L 505.309891 154.388942 
L 506.798222 153.480288 
L 507.542387 153.025962 
L 508.286553 152.26875 
L 511.263214 150.148558 
L 512.007379 149.340865 
L 512.751545 148.785577 
L 514.239876 148.280769 
L 514.984041 147.574038 
L 516.472372 146.816827 
L 517.216537 146.614904 
L 517.960702 146.059615 
L 518.704868 145.857692 
L 520.937364 144.696635 
L 521.681529 144.141346 
L 523.16986 143.535577 
L 523.914025 143.384135 
L 524.658191 142.929808 
L 529.867348 141.1125 
L 530.611514 140.45625 
L 532.84401 139.648558 
L 534.332341 139.194231 
L 535.076506 138.638942 
L 537.309002 137.629327 
L 538.053167 137.074038 
L 538.797333 136.670192 
L 540.285663 133.792788 
L 541.773994 132.076442 
L 542.51816 131.571635 
L 544.750656 130.6125 
L 545.494821 130.360096 
L 546.238986 130.259135 
L 546.983152 129.855288 
L 549.215648 129.148558 
L 551.448144 128.290385 
L 552.936475 127.33125 
L 555.168971 126.321635 
L 558.889798 124.201442 
L 559.633963 123.444231 
L 561.122294 122.636538 
L 561.866459 122.232692 
L 562.610625 121.980288 
L 563.35479 121.475481 
L 564.843121 120.76875 
L 565.587286 120.314423 
L 566.331451 120.011538 
L 567.075617 119.557212 
L 567.819782 119.355288 
L 568.563948 118.8 
L 569.308113 118.497115 
L 570.052278 118.345673 
L 571.540609 117.739904 
L 573.773105 116.932212 
L 574.517271 116.376923 
L 576.005601 115.973077 
L 577.493932 115.417788 
L 578.238097 114.812019 
L 579.726428 114.357692 
L 580.470593 114.004327 
L 581.214759 113.802404 
L 582.70309 112.792788 
L 584.19142 112.136538 
L 585.679751 111.025962 
L 587.168082 110.521154 
L 587.912247 109.864904 
L 588.656413 109.713462 
L 589.400578 109.057212 
L 590.888909 108.199038 
L 592.377239 107.593269 
L 593.121405 106.836058 
L 597.586397 105.220673 
L 599.818893 104.261538 
L 602.051389 103.605288 
L 603.53972 103.403365 
L 604.283885 103.100481 
L 605.028051 102.949038 
L 606.516381 102.343269 
L 607.260547 102.292788 
L 610.237208 101.182212 
L 612.469704 99.667788 
L 616.934697 97.497115 
L 619.167193 96.033173 
L 620.655523 95.679808 
L 622.143854 94.670192 
L 625.120516 93.761538 
L 625.864681 93.458654 
L 627.353012 93.105288 
L 631.073839 91.89375 
L 633.306335 91.489904 
L 634.0505 91.287981 
L 634.794665 90.934615 
L 635.538831 90.833654 
L 637.027162 90.227885 
L 637.771327 90.126923 
L 638.515492 89.773558 
L 640.003823 89.470673 
L 640.747988 89.117308 
L 642.980485 88.6125 
L 644.468815 88.309615 
L 651.166304 86.946635 
L 651.910469 86.64375 
L 652.654634 86.593269 
L 654.88713 85.9875 
L 655.631296 85.583654 
L 659.352123 84.675 
L 660.096288 84.523558 
L 663.07295 83.412981 
L 663.817115 83.160577 
L 664.56128 83.059615 
L 666.793776 82.302404 
L 667.537942 82.302404 
L 669.026273 81.797596 
L 669.770438 81.090865 
L 670.514603 80.7375 
L 672.002934 80.283173 
L 674.979595 79.172596 
L 675.723761 79.021154 
L 676.467926 78.566827 
L 677.212092 78.415385 
L 677.956257 77.910577 
L 681.677084 76.8 
L 682.421249 76.345673 
L 683.165415 76.14375 
L 683.90958 75.537981 
L 686.142076 75.134135 
L 687.630407 74.326442 
L 688.374572 73.51875 
L 689.862903 73.215865 
L 694.327895 72.20625 
L 695.816226 71.802404 
L 697.304557 71.751923 
L 698.048722 71.398558 
L 701.025383 70.89375 
L 701.769549 70.540385 
L 704.002045 70.2375 
L 705.490376 69.682212 
L 706.234541 69.328846 
L 706.978706 69.278365 
L 709.211202 68.773558 
L 711.443699 68.218269 
L 714.42036 67.309615 
L 715.164525 67.158173 
L 715.908691 66.804808 
L 716.652856 66.703846 
L 717.397022 66.451442 
L 718.141187 65.997115 
L 720.373683 65.138942 
L 721.117848 64.583654 
L 722.606179 64.179808 
L 723.350345 63.876923 
L 724.838675 63.473077 
L 727.815337 62.110096 
L 730.047833 61.958654 
L 733.024494 61.05 
L 733.76866 60.545192 
L 735.25699 60.090865 
L 738.977817 58.425 
L 739.721983 58.324038 
L 741.210313 57.76875 
L 741.954479 57.415385 
L 742.698644 57.263942 
L 743.44281 56.860096 
L 744.93114 56.45625 
L 746.419471 55.8 
L 747.163636 55.8 
L 747.163636 55.8 
" clip-path="url(#pbd6e805f7d)" style="fill: none; stroke: #1f77b4; stroke-width: 1.5; stroke-linecap: square"/>
   </g>
   <g id="line2d_40">
    <path d="M 139.180529 307.8 
L 141.413025 307.699038 
L 142.901356 307.598077 
L 148.110513 307.497115 
L 151.83134 307.345673 
L 154.808002 307.345673 
L 155.552167 307.14375 
L 157.784663 307.093269 
L 162.249655 306.588462 
L 173.412136 305.932212 
L 179.365459 305.83125 
L 183.086286 305.679808 
L 192.01627 305.578846 
L 195.737097 305.427404 
L 200.202089 305.326442 
L 203.178751 305.225481 
L 209.876239 305.124519 
L 212.108735 305.074038 
L 214.341231 305.023558 
L 216.573727 304.771154 
L 221.03872 304.720673 
L 222.52705 304.619712 
L 227.736208 304.51875 
L 235.922027 304.064423 
L 241.131185 303.963462 
L 242.619515 303.8625 
L 244.852012 303.761538 
L 249.317004 303.559615 
L 252.293665 303.509135 
L 254.526161 303.307212 
L 266.432807 302.600481 
L 269.409469 302.499519 
L 274.618626 302.247115 
L 276.851122 302.146154 
L 284.292776 301.742308 
L 292.478595 301.641346 
L 295.455257 301.338462 
L 296.943587 301.2375 
L 305.129407 300.682212 
L 305.873572 300.480288 
L 308.106068 300.278365 
L 309.594399 299.925 
L 311.826895 299.874519 
L 314.059391 299.773558 
L 320.012714 299.016346 
L 323.733541 298.915385 
L 333.407691 298.158173 
L 337.872683 297.653365 
L 340.105179 297.602885 
L 341.59351 297.501923 
L 344.570171 297.400962 
L 346.058502 297.3 
L 349.779329 296.946635 
L 350.523494 296.744712 
L 354.988486 296.542788 
L 358.709313 296.441827 
L 369.127628 295.836058 
L 370.615959 295.735096 
L 380.290109 295.179808 
L 385.499267 295.078846 
L 386.243432 294.927404 
L 392.196755 294.826442 
L 397.405912 294.574038 
L 405.591731 294.473077 
L 410.800889 294.220673 
L 416.754212 294.119712 
L 423.4517 293.766346 
L 427.916693 293.665385 
L 442.055835 292.807212 
L 448.009158 292.70625 
L 451.729984 292.352885 
L 453.218315 292.201442 
L 456.939142 292.150962 
L 459.915804 291.848077 
L 467.357457 291.444231 
L 471.822449 291.343269 
L 474.054946 291.292788 
L 476.287442 291.242308 
L 478.519938 291.040385 
L 484.473261 290.939423 
L 485.961591 290.687019 
L 487.449922 290.586058 
L 490.426584 290.485096 
L 492.65908 290.384135 
L 494.147411 290.283173 
L 500.844899 290.182212 
L 502.33323 290.030769 
L 505.309891 289.929808 
L 506.054056 289.778365 
L 507.542387 289.727885 
L 508.286553 289.576442 
L 510.519049 289.475481 
L 523.16986 288.718269 
L 525.402356 288.617308 
L 529.123183 288.465865 
L 539.541498 288.364904 
L 544.750656 288.1125 
L 550.703979 288.011538 
L 553.68064 287.910577 
L 556.657302 287.860096 
L 558.145632 287.708654 
L 561.122294 287.607692 
L 568.563948 287.203846 
L 573.02894 287.153365 
L 575.261436 286.951442 
L 577.493932 286.900962 
L 582.70309 286.8 
L 585.679751 286.699038 
L 594.609735 286.598077 
L 598.330562 286.446635 
L 602.795555 286.345673 
L 605.028051 286.093269 
L 609.493043 286.042788 
L 610.237208 285.891346 
L 611.725539 285.790385 
L 614.7022 285.689423 
L 623.632185 285.588462 
L 627.353012 285.437019 
L 640.003823 285.386538 
L 641.492154 285.285577 
L 643.72465 285.235096 
L 653.3988 285.134135 
L 654.88713 285.033173 
L 663.07295 284.932212 
L 666.049611 284.83125 
L 674.979595 284.780769 
L 676.467926 284.679808 
L 687.630407 284.629327 
L 689.862903 284.427404 
L 702.513714 284.326442 
L 704.74621 284.275962 
L 724.09451 284.175 
L 727.071171 284.074038 
L 736.745321 283.973077 
L 738.977817 283.922596 
L 741.210313 283.821635 
L 743.44281 283.771154 
L 747.163636 283.771154 
L 747.163636 283.771154 
" clip-path="url(#pbd6e805f7d)" style="fill: none; stroke: #ff7f0e; stroke-width: 1.5; stroke-linecap: square"/>
   </g>
   <g id="patch_3">
    <path d="M 108 320.4 
L 108 43.2 
" style="fill: none; stroke: #a9a9a9; stroke-width: 0.8; stroke-linejoin: miter; stroke-linecap: square"/>
   </g>
   <g id="patch_4">
    <path d="M 777.6 320.4 
L 777.6 43.2 
" style="fill: none"/>
   </g>
   <g id="patch_5">
    <path d="M 108 320.4 
L 777.6 320.4 
" style="fill: none; stroke: #a9a9a9; stroke-width: 0.8; stroke-linejoin: miter; stroke-linecap: square"/>
   </g>
   <g id="patch_6">
    <path d="M 108 43.2 
L 777.6 43.2 
" style="fill: none"/>
   </g>
   <g id="text_20">
    <!-- get_subscribe history -->
    <g style="fill: #a9a9a9" transform="translate(378.6075 37.2) scale(0.12 -0.12)">
     <defs>
      <path id="DejaVuSans-67" d="M 2906 1791 
Q 2906 2416 2648 2759 
Q 2391 3103 1925 3103 
Q 1463 3103 1205 2759 
Q 947 2416 947 1791 
Q 947 1169 1205 825 
Q 1463 481 1925 481 
Q 2391 481 2648 825 
Q 2906 1169 2906 1791 
z
M 3481 434 
Q 3481 -459 3084 -895 
Q 2688 -1331 1869 -1331 
Q 1566 -1331 1297 -1286 
Q 1028 -1241 775 -1147 
L 775 -588 
Q 1028 -725 1275 -790 
Q 1522 -856 1778 -856 
Q 2344 -856 2625 -561 
Q 2906 -266 2906 331 
L 2906 616 
Q 2728 306 2450 153 
Q 2172 0 1784 0 
Q 1141 0 747 490 
Q 353 981 353 1791 
Q 353 2603 747 3093 
Q 1141 3584 1784 3584 
Q 2172 3584 2450 3431 
Q 2728 3278 2906 2969 
L 2906 3500 
L 3481 3500 
L 3481 434 
z
" transform="scale(0.015625)"/>
      <path id="DejaVuSans-65" d="M 3597 1894 
L 3597 1613 
L 953 1613 
Q 991 1019 1311 708 
Q 1631 397 2203 397 
Q 2534 397 2845 478 
Q 3156 559 3463 722 
L 3463 178 
Q 3153 47 2828 -22 
Q 2503 -91 2169 -91 
Q 1331 -91 842 396 
Q 353 884 353 1716 
Q 353 2575 817 3079 
Q 1281 3584 2069 3584 
Q 2775 3584 3186 3129 
Q 3597 2675 3597 1894 
z
M 3022 2063 
Q 3016 2534 2758 2815 
Q 2500 3097 2075 3097 
Q 1594 3097 1305 2825 
Q 1016 2553 972 2059 
L 3022 2063 
z
" transform="scale(0.015625)"/>
      <path id="DejaVuSans-74" d="M 1172 4494 
L 1172 3500 
L 2356 3500 
L 2356 3053 
L 1172 3053 
L 1172 1153 
Q 1172 725 1289 603 
Q 1406 481 1766 481 
L 2356 481 
L 2356 0 
L 1766 0 
Q 1100 0 847 248 
Q 594 497 594 1153 
L 594 3053 
L 172 3053 
L 172 3500 
L 594 3500 
L 594 4494 
L 1172 4494 
z
" transform="scale(0.015625)"/>
      <path id="DejaVuSans-5f" d="M 3263 -1063 
L 3263 -1509 
L -63 -1509 
L -63 -1063 
L 3263 -1063 
z
" transform="scale(0.015625)"/>
      <path id="DejaVuSans-73" d="M 2834 3397 
L 2834 2853 
Q 2591 2978 2328 3040 
Q 2066 3103 1784 3103 
Q 1356 3103 1142 2972 
Q 928 2841 928 2578 
Q 928 2378 1081 2264 
Q 1234 2150 1697 2047 
L 1894 2003 
Q 2506 1872 2764 1633 
Q 3022 1394 3022 966 
Q 3022 478 2636 193 
Q 2250 -91 1575 -91 
Q 1294 -91 989 -36 
Q 684 19 347 128 
L 347 722 
Q 666 556 975 473 
Q 1284 391 1588 391 
Q 1994 391 2212 530 
Q 2431 669 2431 922 
Q 2431 1156 2273 1281 
Q 2116 1406 1581 1522 
L 1381 1569 
Q 847 1681 609 1914 
Q 372 2147 372 2553 
Q 372 3047 722 3315 
Q 1072 3584 1716 3584 
Q 2034 3584 2315 3537 
Q 2597 3491 2834 3397 
z
" transform="scale(0.015625)"/>
      <path id="DejaVuSans-75" d="M 544 1381 
L 544 3500 
L 1119 3500 
L 1119 1403 
Q 1119 906 1312 657 
Q 1506 409 1894 409 
Q 2359 409 2629 706 
Q 2900 1003 2900 1516 
L 2900 3500 
L 3475 3500 
L 3475 0 
L 2900 0 
L 2900 538 
Q 2691 219 2414 64 
Q 2138 -91 1772 -91 
Q 1169 -91 856 284 
Q 544 659 544 1381 
z
M 1991 3584 
L 1991 3584 
z
" transform="scale(0.015625)"/>
      <path id="DejaVuSans-62" d="M 3116 1747 
Q 3116 2381 2855 2742 
Q 2594 3103 2138 3103 
Q 1681 3103 1420 2742 
Q 1159 2381 1159 1747 
Q 1159 1113 1420 752 
Q 1681 391 2138 391 
Q 2594 391 2855 752 
Q 3116 1113 3116 1747 
z
M 1159 2969 
Q 1341 3281 1617 3432 
Q 1894 3584 2278 3584 
Q 2916 3584 3314 3078 
Q 3713 2572 3713 1747 
Q 3713 922 3314 415 
Q 2916 -91 2278 -91 
Q 1894 -91 1617 61 
Q 1341 213 1159 525 
L 1159 0 
L 581 0 
L 581 4863 
L 1159 4863 
L 1159 2969 
z
" transform="scale(0.015625)"/>
      <path id="DejaVuSans-63" d="M 3122 3366 
L 3122 2828 
Q 2878 2963 2633 3030 
Q 2388 3097 2138 3097 
Q 1578 3097 1268 2742 
Q 959 2388 959 1747 
Q 959 1106 1268 751 
Q 1578 397 2138 397 
Q 2388 397 2633 464 
Q 2878 531 3122 666 
L 3122 134 
Q 2881 22 2623 -34 
Q 2366 -91 2075 -91 
Q 1284 -91 818 406 
Q 353 903 353 1747 
Q 353 2603 823 3093 
Q 1294 3584 2113 3584 
Q 2378 3584 2631 3529 
Q 2884 3475 3122 3366 
z
" transform="scale(0.015625)"/>
      <path id="DejaVuSans-72" d="M 2631 2963 
Q 2534 3019 2420 3045 
Q 2306 3072 2169 3072 
Q 1681 3072 1420 2755 
Q 1159 2438 1159 1844 
L 1159 0 
L 581 0 
L 581 3500 
L 1159 3500 
L 1159 2956 
Q 1341 3275 1631 3429 
Q 1922 3584 2338 3584 
Q 2397 3584 2469 3576 
Q 2541 3569 2628 3553 
L 2631 2963 
z
" transform="scale(0.015625)"/>
      <path id="DejaVuSans-69" d="M 603 3500 
L 1178 3500 
L 1178 0 
L 603 0 
L 603 3500 
z
M 603 4863 
L 1178 4863 
L 1178 4134 
L 603 4134 
L 603 4863 
z
" transform="scale(0.015625)"/>
      <path id="DejaVuSans-20" transform="scale(0.015625)"/>
      <path id="DejaVuSans-68" d="M 3513 2113 
L 3513 0 
L 2938 0 
L 2938 2094 
Q 2938 2591 2744 2837 
Q 2550 3084 2163 3084 
Q 1697 3084 1428 2787 
Q 1159 2491 1159 1978 
L 1159 0 
L 581 0 
L 581 4863 
L 1159 4863 
L 1159 2956 
Q 1366 3272 1645 3428 
Q 1925 3584 2291 3584 
Q 2894 3584 3203 3211 
Q 3513 2838 3513 2113 
z
" transform="scale(0.015625)"/>
      <path id="DejaVuSans-6f" d="M 1959 3097 
Q 1497 3097 1228 2736 
Q 959 2375 959 1747 
Q 959 1119 1226 758 
Q 1494 397 1959 397 
Q 2419 397 2687 759 
Q 2956 1122 2956 1747 
Q 2956 2369 2687 2733 
Q 2419 3097 1959 3097 
z
M 1959 3584 
Q 2709 3584 3137 3096 
Q 3566 2609 3566 1747 
Q 3566 888 3137 398 
Q 2709 -91 1959 -91 
Q 1206 -91 779 398 
Q 353 888 353 1747 
Q 353 2609 779 3096 
Q 1206 3584 1959 3584 
z
" transform="scale(0.015625)"/>
      <path id="DejaVuSans-79" d="M 2059 -325 
Q 1816 -950 1584 -1140 
Q 1353 -1331 966 -1331 
L 506 -1331 
L 506 -850 
L 844 -850 
Q 1081 -850 1212 -737 
Q 1344 -625 1503 -206 
L 1606 56 
L 191 3500 
L 800 3500 
L 1894 763 
L 2988 3500 
L 3597 3500 
L 2059 -325 
z
" transform="scale(0.015625)"/>
     </defs>
     <use xlink:href="#DejaVuSans-67"/>
     <use xlink:href="#DejaVuSans-65" x="63.476562"/>
     <use xlink:href="#DejaVuSans-74" x="125"/>
     <use xlink:href="#DejaVuSans-5f" x="164.208984"/>
     <use xlink:href="#DejaVuSans-73" x="214.208984"/>
     <use xlink:href="#DejaVuSans-75" x="266.308594"/>
     <use xlink:href="#DejaVuSans-62" x="329.6875"/>
     <use xlink:href="#DejaVuSans-73" x="393.164062"/>
     <use xlink:href="#DejaVuSans-63" x="445.263672"/>
     <use xlink:href="#DejaVuSans-72" x="500.244141"/>
     <use xlink:href="#DejaVuSans-69" x="541.357422"/>
     <use xlink:href="#DejaVuSans-62" x="569.140625"/>
     <use xlink:href="#DejaVuSans-65" x="632.617188"/>
     <use xlink:href="#DejaVuSans-20" x="694.140625"/>
     <use xlink:href="#DejaVuSans-68" x="725.927734"/>
     <use xlink:href="#DejaVuSans-69" x="789.306641"/>
     <use xlink:href="#DejaVuSans-73" x="817.089844"/>
     <use xlink:href="#DejaVuSans-74" x="869.189453"/>
     <use xlink:href="#DejaVuSans-6f" x="908.398438"/>
     <use xlink:href="#DejaVuSans-72" x="969.580078"/>
     <use xlink:href="#DejaVuSans-79" x="1010.693359"/>
    </g>
   </g>
   <g id="legend_1">
    <g id="line2d_41">
     <path d="M 815.08 328.498438 
L 825.08 328.498438 
L 835.08 328.498438 
" style="fill: none; stroke: #1f77b4; stroke-width: 1.5; stroke-linecap: square"/>
    </g>
    <g id="text_21">
     <!-- star -->
     <g style="fill: #a9a9a9" transform="translate(843.08 331.998438) scale(0.1 -0.1)">
      <defs>
       <path id="DejaVuSans-61" d="M 2194 1759 
Q 1497 1759 1228 1600 
Q 959 1441 959 1056 
Q 959 750 1161 570 
Q 1363 391 1709 391 
Q 2188 391 2477 730 
Q 2766 1069 2766 1631 
L 2766 1759 
L 2194 1759 
z
M 3341 1997 
L 3341 0 
L 2766 0 
L 2766 531 
Q 2569 213 2275 61 
Q 1981 -91 1556 -91 
Q 1019 -91 701 211 
Q 384 513 384 1019 
Q 384 1609 779 1909 
Q 1175 2209 1959 2209 
L 2766 2209 
L 2766 2266 
Q 2766 2663 2505 2880 
Q 2244 3097 1772 3097 
Q 1472 3097 1187 3025 
Q 903 2953 641 2809 
L 641 3341 
Q 956 3463 1253 3523 
Q 1550 3584 1831 3584 
Q 2591 3584 2966 3190 
Q 3341 2797 3341 1997 
z
" transform="scale(0.015625)"/>
      </defs>
      <use xlink:href="#DejaVuSans-73"/>
      <use xlink:href="#DejaVuSans-74" x="52.099609"/>
      <use xlink:href="#DejaVuSans-61" x="91.308594"/>
      <use xlink:href="#DejaVuSans-72" x="152.587891"/>
     </g>
    </g>
    <g id="line2d_42">
     <path d="M 815.08 343.176562 
L 825.08 343.176562 
L 835.08 343.176562 
" style="fill: none; stroke: #ff7f0e; stroke-width: 1.5; stroke-linecap: square"/>
    </g>
    <g id="text_22">
     <!-- fork -->
     <g style="fill: #a9a9a9" transform="translate(843.08 346.676562) scale(0.1 -0.1)">
      <defs>
       <path id="DejaVuSans-66" d="M 2375 4863 
L 2375 4384 
L 1825 4384 
Q 1516 4384 1395 4259 
Q 1275 4134 1275 3809 
L 1275 3500 
L 2222 3500 
L 2222 3053 
L 1275 3053 
L 1275 0 
L 697 0 
L 697 3053 
L 147 3053 
L 147 3500 
L 697 3500 
L 697 3744 
Q 697 4328 969 4595 
Q 1241 4863 1831 4863 
L 2375 4863 
z
" transform="scale(0.015625)"/>
       <path id="DejaVuSans-6b" d="M 581 4863 
L 1159 4863 
L 1159 1991 
L 2875 3500 
L 3609 3500 
L 1753 1863 
L 3688 0 
L 2938 0 
L 1159 1709 
L 1159 0 
L 581 0 
L 581 4863 
z
" transform="scale(0.015625)"/>
      </defs>
      <use xlink:href="#DejaVuSans-66"/>
      <use xlink:href="#DejaVuSans-6f" x="35.205078"/>
      <use xlink:href="#DejaVuSans-72" x="96.386719"/>
      <use xlink:href="#DejaVuSans-6b" x="137.5"/>
     </g>
    </g>
   </g>
  </g>
 </g>
 <defs>
  <clipPath id="pbd6e805f7d">
   <rect x="108" y="43.2" width="669.6" height="277.2"/>
  </clipPath>
 </defs>
</svg>
